-vsync is deprecated. Use -fps_mode
Passing a number to -vsync is deprecated, use a string argument as described in the manual.
[h264 @ 0x5f3b518a7580] Reinit context to 1920x1088, pix_fmt: yuv420p
Input #0, mov,mp4,m4a,3gp,3g2,mj2, from '/var/www/html/project/media/video/original/Social_nqRbot6.mp4':
  Metadata:
    major_brand     : isom
    minor_version   : 512
    compatible_brands: isomiso2avc1mp41
    creation_time   : 2025-12-25T11:25:49.000000Z
    encoder         : Blackmagic Design DaVinci Resolve Studio
  Duration: 00:01:20.11, start: 0.000000, bitrate: 3906 kb/s
  Stream #0:0[0x1](und): Video: h264 (High), 1 reference frame (avc1 / 0x31637661), yuv420p(tv, bt709/bt709/unknown, progressive, left), 1920x1080 (1920x1088), 3585 kb/s, SAR 1:1 DAR 16:9, 30 fps, 30 tbr, 15360 tbn (default)
    Metadata:
      creation_time   : 2025-12-25T11:25:49.000000Z
      handler_name    : VideoHandler
      vendor_id       : [0][0][0][0]
      encoder         : H.264
      timecode        : 01:00:00:00
  Stream #0:1[0x2](und): Audio: aac (LC) (mp4a / 0x6134706D), 48000 Hz, stereo, fltp, 319 kb/s (default)
    Metadata:
      creation_time   : 2025-12-25T11:25:49.000000Z
      handler_name    : SoundHandler
      vendor_id       : [0][0][0][0]
  Stream #0:2[0x3](eng): Data: none (tmcd / 0x64636D74) (default)
    Metadata:
      creation_time   : 2025-12-25T11:25:49.000000Z
      handler_name    : TimeCodeHandler
      timecode        : 01:00:00:00
Input #1, png_pipe, from '/var/www/html/project/static/images/templates/logo.png':
  Duration: N/A, bitrate: N/A
  Stream #1:0: Video: png, 1 reference frame, rgba(pc, gbr/unknown/unknown), 1920x1080 [SAR 2835:2835 DAR 16:9], 25 fps, 25 tbr, 25 tbn
[h264 @ 0x5f3b518aaec0] Reinit context to 1280x720, pix_fmt: yuv420p
Input #2, mov,mp4,m4a,3gp,3g2,mj2, from '/var/www/html/project/static/images/templates/Codino.mp4':
  Metadata:
    major_brand     : mp42
    minor_version   : 1
    compatible_brands: isommp41mp42
    creation_time   : 2021-07-11T07:02:58.000000Z
  Duration: 00:00:02.00, start: 0.000000, bitrate: 1007 kb/s
  Stream #2:0[0x1](ita): Audio: aac (LC) (mp4a / 0x6134706D), 44100 Hz, stereo, fltp, 102 kb/s (default)
    Metadata:
      creation_time   : 2021-07-11T07:02:58.000000Z
      handler_name    : Core Media Audio
      vendor_id       : [0][0][0][0]
  Stream #2:1[0x2](und): Video: h264 (High), 1 reference frame (avc1 / 0x31637661), yuv420p(tv, bt709, progressive, left), 1280x720 [SAR 1:1 DAR 16:9], 813 kb/s, 25 fps, 25 tbr, 25k tbn (default)
    Metadata:
      creation_time   : 2021-07-11T07:02:58.000000Z
      handler_name    : Core Media Video
      vendor_id       : [0][0][0][0]
[out#0/mp4 @ 0x5f3b536c7300] Adding streams from explicit maps...
[out#0/mp4 @ 0x5f3b536c7300] Creating output stream from an explicitly mapped complex filtergraph 0, output [v]
[vost#0:0/libx264 @ 0x5f3b536c7d00] Created video stream from complex filtergraph 0:[concat]
[vost#0:0/libx264 @ 0x5f3b536c7d00] 
[out#0/mp4 @ 0x5f3b536c7300] Creating output stream from an explicitly mapped complex filtergraph 0, output [a]
[aost#0:1/aac @ 0x5f3b536c8f00] Created audio stream from complex filtergraph 0:[concat]
[aost#0:1/aac @ 0x5f3b536c8f00] 
Stream mapping:
  Stream #0:0 (h264) -> scale:default
  Stream #0:1 (aac) -> concat
  Stream #1:0 (png) -> scale:default
  Stream #2:0 (aac) -> concat
  Stream #2:1 (h264) -> scale:default
  concat -> Stream #0:0 (libx264)
  concat -> Stream #0:1 (aac)
Press [q] to stop, [?] for help
[h264 @ 0x5f3b51a07640] Reinit context to 1920x1088, pix_fmt: yuv420p
[in#1/png_pipe @ 0x5f3b518a8540] EOF while reading input
[in#1/png_pipe @ 0x5f3b518a8540] Terminating demuxer thread
[vist#1:0/png @ 0x5f3b519a3400] Decoder thread received EOF packet
[vist#1:0/png @ 0x5f3b519a3400] Decoder returned EOF, finishing
[vist#1:0/png @ 0x5f3b519a3400] Terminating decoder thread
[h264 @ 0x5f3b52879340] Reinit context to 1280x720, pix_fmt: yuv420p
[Parsed_scale_0 @ 0x5f3b537a3500] w:1280 h:720 flags:'' interl:0
[Parsed_scale_2 @ 0x5f3b537b0980] w:1280 h:720 flags:'' interl:0
[Parsed_scale_4 @ 0x5f3b537bde40] w:1280 h:720 flags:'' interl:0
[graph 0 input from stream 0:0 @ 0x5f3b51a3c9c0] w:1920 h:1080 pixfmt:yuv420p tb:1/15360 fr:30/1 sar:1/1
[graph 0 input from stream 1:0 @ 0x5f3b537a0340] w:1920 h:1080 pixfmt:rgba tb:1/25 fr:25/1 sar:2835/2835
[graph 0 input from stream 2:1 @ 0x5f3b51a3c880] w:1280 h:720 pixfmt:yuv420p tb:1/25000 fr:25/1 sar:1/1
[graph_0_in_0_1 @ 0x5f3b51a3c680] tb:1/48000 samplefmt:fltp samplerate:48000 chlayout:stereo
[graph_0_in_2_0 @ 0x5f3b537cc500] tb:1/44100 samplefmt:fltp samplerate:44100 chlayout:stereo
[Parsed_concat_7 @ 0x5f3b537cb440] auto-inserting filter 'auto_aresample_0' between the filter 'graph_0_in_2_0' and the filter 'Parsed_concat_7'
[Parsed_scale_0 @ 0x5f3b537a3500] w:1920 h:1080 fmt:yuv420p sar:1/1 -> w:1280 h:720 fmt:yuv420p sar:1/1 flags:0x00000004
[Parsed_setsar_1 @ 0x5f3b537b06c0] w:1280 h:720 sar:1/1 dar:16/9 -> sar:1/1 dar:16/9
[Parsed_scale_2 @ 0x5f3b537b0980] w:1920 h:1080 fmt:rgba sar:2835/2835 -> w:1280 h:720 fmt:yuva420p sar:1/1 flags:0x00000004
[Parsed_setsar_3 @ 0x5f3b537bdb80] w:1280 h:720 sar:1/1 dar:16/9 -> sar:1/1 dar:16/9
[Parsed_overlay_6 @ 0x5f3b537cb180] main w:1280 h:720 fmt:yuv420p overlay w:1280 h:720 fmt:yuva420p
[Parsed_overlay_6 @ 0x5f3b537cb180] [framesync @ 0x5f3b518c8028] Selected 1/76800 time base
[Parsed_overlay_6 @ 0x5f3b537cb180] [framesync @ 0x5f3b518c8028] Sync level 2
[Parsed_scale_4 @ 0x5f3b537bde40] w:1280 h:720 fmt:yuv420p sar:1/1 -> w:1280 h:720 fmt:yuv420p sar:1/1 flags:(null)
[Parsed_setsar_5 @ 0x5f3b51a3cb00] w:1280 h:720 sar:1/1 dar:16/9 -> sar:1/1 dar:16/9
[auto_aresample_0 @ 0x5f3b537d0040] ch:2 chl:stereo fmt:fltp r:44100Hz -> ch:2 chl:stereo fmt:fltp r:48000Hz
[Parsed_concat_7 @ 0x5f3b537cb440] Video inputs have different frame rates, output will be VFR
[Parsed_scale_0 @ 0x5f3b537a3500] w:1920 h:1080 fmt:yuv420p sar:1/1 -> w:1280 h:720 fmt:yuv420p sar:1/1 flags:0x00000004
    Last message repeated 2 times
[Parsed_scale_2 @ 0x5f3b537b0980] w:1920 h:1080 fmt:rgba sar:2835/2835 -> w:1280 h:720 fmt:yuva420p sar:1/1 flags:0x00000004
    Last message repeated 2 times
[Parsed_scale_4 @ 0x5f3b537bde40] w:1280 h:720 fmt:yuv420p sar:1/1 -> w:1280 h:720 fmt:yuv420p sar:1/1 flags:(null)
    Last message repeated 2 times
[libx264 @ 0x5f3b536c80c0] using SAR=1/1
[libx264 @ 0x5f3b536c80c0] MB rate (3600000000) > level limit (16711680)
[libx264 @ 0x5f3b536c80c0] using cpu capabilities: MMX2 SSE2Fast SSSE3 SSE4.2 AVX FMA3 BMI2 AVX2
[libx264 @ 0x5f3b536c80c0] profile High, level 6.2, 4:2:0, 8-bit
[libx264 @ 0x5f3b536c80c0] 264 - core 164 r3108 31e19f9 - H.264/MPEG-4 AVC codec - Copyleft 2003-2023 - http://www.videolan.org/x264.html - options: cabac=1 ref=1 deblock=1:0:0 analyse=0x3:0x113 me=hex subme=2 psy=1 psy_rd=1.00:0.00 mixed_ref=0 me_range=16 chroma_me=1 trellis=0 8x8dct=1 cqm=0 deadzone=21,11 fast_pskip=1 chroma_qp_offset=0 threads=22 lookahead_threads=5 sliced_threads=0 nr=0 decimate=1 interlaced=0 bluray_compat=0 constrained_intra=0 bframes=3 b_pyramid=2 b_adapt=1 b_bias=0 direct=1 weightb=1 open_gop=0 weightp=1 keyint=250 keyint_min=25 scenecut=40 intra_refresh=0 rc_lookahead=10 rc=crf mbtree=1 crf=18.0 qcomp=0.60 qpmin=0 qpmax=69 qpstep=4 ip_ratio=1.40 aq=1:1.00
Output #0, mp4, to '/var/www/html/project/media/video/watermarks/Social_nqRbot6.mp4':
  Metadata:
    major_brand     : isom
    minor_version   : 512
    compatible_brands: isomiso2avc1mp41
    encoder         : Lavf60.16.100
  Stream #0:0: Video: h264, 1 reference frame (avc1 / 0x31637661), yuv420p(tv, bt709/bt709/unknown, progressive, left), 1280x720 (0x0) [SAR 1:1 DAR 16:9], q=2-31, 1000k tbn
    Metadata:
      encoder         : Lavc60.31.102 libx264
    Side data:
      cpb: bitrate max/min/avg: 0/0/0 buffer size: 0 vbv_delay: N/A
  Stream #0:1: Audio: aac (LC) (mp4a / 0x6134706D), 48000 Hz, stereo, fltp, delay 1024, 128 kb/s
    Metadata:
      encoder         : Lavc60.31.102 aac
[in#0/mov,mp4,m4a,3gp,3g2,mj2 @ 0x5f3b5189d000] EOF while reading input
[in#0/mov,mp4,m4a,3gp,3g2,mj2 @ 0x5f3b5189d000] Terminating demuxer thread
[vist#0:0/h264 @ 0x5f3b518be240] Decoder thread received EOF packet
[vist#0:0/h264 @ 0x5f3b518be240] Decoder returned EOF, finishing
[vist#0:0/h264 @ 0x5f3b518be240] Terminating decoder thread
[Parsed_overlay_6 @ 0x5f3b537cb180] [framesync @ 0x5f3b518c8028] Sync level 0
[Parsed_concat_7 @ 0x5f3b537cb440] EOF on in0:v0, 1 streams left in segment.
[aist#0:1/aac @ 0x5f3b518ed9c0] Decoder thread received EOF packet
[aist#0:1/aac @ 0x5f3b518ed9c0] Decoder returned EOF, finishing
[aist#0:1/aac @ 0x5f3b518ed9c0] Terminating decoder thread
[Parsed_concat_7 @ 0x5f3b537cb440] EOF on in0:a0, 0 streams left in segment.
[Parsed_concat_7 @ 0x5f3b537cb440] Segment finished at pts=80062666
[in#2/mov,mp4,m4a,3gp,3g2,mj2 @ 0x5f3b51a18280] EOF while reading input
[in#2/mov,mp4,m4a,3gp,3g2,mj2 @ 0x5f3b51a18280] Terminating demuxer thread
[aist#2:0/aac @ 0x5f3b518a86c0] Decoder thread received EOF packet
[aist#2:0/aac @ 0x5f3b518a86c0] Decoder returned EOF, finishing
[aist#2:0/aac @ 0x5f3b518a86c0] Terminating decoder thread
[vist#2:1/h264 @ 0x5f3b519a2300] Decoder thread received EOF packet
[vist#2:1/h264 @ 0x5f3b519a2300] Decoder returned EOF, finishing
[vist#2:1/h264 @ 0x5f3b519a2300] Terminating decoder thread
[Parsed_concat_7 @ 0x5f3b537cb440] EOF on in1:v0, 1 streams left in segment.
[Parsed_concat_7 @ 0x5f3b537cb440] EOF on in1:a0, 0 streams left in segment.
[Parsed_concat_7 @ 0x5f3b537cb440] Segment finished at pts=82081353
No more output streams to write to, finishing.
[out#0/mp4 @ 0x5f3b536c7300] All streams finished
[out#0/mp4 @ 0x5f3b536c7300] Terminating muxer thread
[AVIOContext @ 0x5f3b53794b80] Statistics: 54896427 bytes written, 2 seeks, 213 writeouts
[out#0/mp4 @ 0x5f3b536c7300] Output file #0 (/var/www/html/project/media/video/watermarks/Social_nqRbot6.mp4):
[out#0/mp4 @ 0x5f3b536c7300]   Output stream #0:0 (video): 2451 frames encoded; 2451 packets muxed (53485037 bytes); 
[out#0/mp4 @ 0x5f3b536c7300]   Output stream #0:1 (audio): 3848 frames encoded (3939905 samples); 3849 packets muxed (1308122 bytes); 
[out#0/mp4 @ 0x5f3b536c7300]   Total: 6300 packets (54793159 bytes) muxed
[out#0/mp4 @ 0x5f3b536c7300] video:52231kB audio:1277kB subtitle:0kB other streams:0kB global headers:0kB muxing overhead: 0.188461%
frame= 2451 fps= 72 q=-1.0 Lsize=   53610kB time=00:01:22.06 bitrate=5351.2kbits/s speed=2.41x    
[AVIOContext @ 0x5f3b518c7040] Statistics: 13836 bytes written, 0 seeks, 68 writeouts
[libx264 @ 0x5f3b536c80c0] frame I:31    Avg QP:15.40  size: 97854
[libx264 @ 0x5f3b536c80c0] frame P:985   Avg QP:18.92  size: 34709
[libx264 @ 0x5f3b536c80c0] frame B:1435  Avg QP:22.23  size: 11333
[libx264 @ 0x5f3b536c80c0] consecutive B-frames: 12.9% 23.5% 10.5% 53.0%
[libx264 @ 0x5f3b536c80c0] mb I  I16..4: 17.9% 15.7% 66.4%
[libx264 @ 0x5f3b536c80c0] mb P  I16..4: 11.2% 13.8%  6.2%  P16..4: 22.9% 18.0% 14.7%  0.0%  0.0%    skip:13.1%
[libx264 @ 0x5f3b536c80c0] mb B  I16..4:  2.3%  2.5%  0.5%  B16..8: 22.6% 13.6%  3.0%  direct:10.4%  skip:45.1%  L0:36.1% L1:40.3% BI:23.6%
[libx264 @ 0x5f3b536c80c0] 8x8 transform intra:42.4% inter:23.5%
[libx264 @ 0x5f3b536c80c0] coded y,uvDC,uvAC intra: 47.7% 34.9% 16.1% inter: 23.6% 13.8% 1.4%
[libx264 @ 0x5f3b536c80c0] i16 v,h,dc,p: 49% 32% 14%  5%
[libx264 @ 0x5f3b536c80c0] i8 v,h,dc,ddl,ddr,vr,hd,vl,hu: 27% 32% 18%  3%  4%  4%  5%  3%  4%
[libx264 @ 0x5f3b536c80c0] i4 v,h,dc,ddl,ddr,vr,hd,vl,hu: 26% 26% 12%  5%  7%  6%  7%  5%  6%
[libx264 @ 0x5f3b536c80c0] i8c dc,h,v,p: 63% 18% 14%  4%
[libx264 @ 0x5f3b536c80c0] Weighted P-Frames: Y:2.7% UV:0.3%
[libx264 @ 0x5f3b536c80c0] kb/s:5214.00
[aac @ 0x5f3b536c9e00] Qavg: 1433.330
[in#0/mov,mp4,m4a,3gp,3g2,mj2 @ 0x5f3b5189d000] Input file #0 (/var/www/html/project/media/video/original/Social_nqRbot6.mp4):
[in#0/mov,mp4,m4a,3gp,3g2,mj2 @ 0x5f3b5189d000]   Input stream #0:0 (video): 2401 packets read (35868924 bytes); 2401 frames decoded; 0 decode errors; 
[in#0/mov,mp4,m4a,3gp,3g2,mj2 @ 0x5f3b5189d000]   Input stream #0:1 (audio): 3755 packets read (3204198 bytes); 3753 frames decoded; 0 decode errors (3843008 samples); 
[in#0/mov,mp4,m4a,3gp,3g2,mj2 @ 0x5f3b5189d000]   Total: 6156 packets (39073122 bytes) demuxed
[AVIOContext @ 0x5f3b518c8480] Statistics: 161351815 bytes read, 4736 seeks
[in#1/png_pipe @ 0x5f3b518a8540] Input file #1 (/var/www/html/project/static/images/templates/logo.png):
[in#1/png_pipe @ 0x5f3b518a8540]   Input stream #1:0 (video): 1 packets read (111578 bytes); 1 frames decoded; 0 decode errors; 
[in#1/png_pipe @ 0x5f3b518a8540]   Total: 1 packets (111578 bytes) demuxed
[AVIOContext @ 0x5f3b518abd80] Statistics: 111578 bytes read, 0 seeks
[in#2/mov,mp4,m4a,3gp,3g2,mj2 @ 0x5f3b51a18280] Input file #2 (/var/www/html/project/static/images/templates/Codino.mp4):
[in#2/mov,mp4,m4a,3gp,3g2,mj2 @ 0x5f3b51a18280]   Input stream #2:0 (audio): 89 packets read (26579 bytes); 87 frames decoded; 0 decode errors (89024 samples); 
[in#2/mov,mp4,m4a,3gp,3g2,mj2 @ 0x5f3b51a18280]   Input stream #2:1 (video): 50 packets read (203365 bytes); 50 frames decoded; 0 decode errors; 
[in#2/mov,mp4,m4a,3gp,3g2,mj2 @ 0x5f3b51a18280]   Total: 139 packets (229944 bytes) demuxed
[AVIOContext @ 0x5f3b519a3580] Statistics: 1629219 bytes read, 37 seeks
